<?xml version="1.0" encoding="UTF-8"?>
<svg xmlns="http://www.w3.org/2000/svg" xmlns:xlink="http://www.w3.org/1999/xlink" width="32px" height="32px" viewBox="0 0 32 32" version="1.1">
<g id="surface1">
<path style=" stroke:none;fill-rule:nonzero;fill:rgb(18.431373%,47.058824%,53.72549%);fill-opacity:1;" d="M 12.808594 18.832031 C 12.808594 18.832031 0.996094 14.40625 1 14.3125 L 1.28125 5.898438 C 1.285156 5.789062 1.398438 5.710938 1.503906 5.753906 L 13.089844 10.03125 C 13.183594 10.066406 13.246094 10.160156 13.242188 10.261719 L 12.960938 18.734375 C 12.957031 18.808594 12.882812 18.859375 12.808594 18.832031 Z M 12.808594 18.832031 "/>
<path style=" stroke:none;fill-rule:nonzero;fill:rgb(21.568627%,27.843137%,30.980392%);fill-opacity:1;" d="M 2.324219 14.972656 L 12.808594 18.832031 C 12.878906 18.859375 12.957031 18.808594 12.960938 18.734375 L 13.242188 10.257812 L 11.351562 9.546875 Z M 2.324219 14.972656 "/>
<path style="fill:none;stroke-width:2.042;stroke-linecap:butt;stroke-linejoin:miter;stroke:rgb(61.568627%,83.137255%,87.843137%);stroke-opacity:1;stroke-miterlimit:10;" d="M 51.234375 75.328125 L 4.546875 58.078125 C 4.21875 57.953125 3.984375 57.625 4 57.265625 L 5.125 23.59375 C 5.140625 23.15625 5.59375 22.84375 6.015625 23.015625 L 52.359375 40.125 C 52.734375 40.265625 52.984375 40.640625 52.96875 41.046875 L 51.84375 74.9375 C 51.828125 75.234375 51.53125 75.4375 51.234375 75.328125 Z M 51.234375 75.328125 " transform="matrix(0.25,0,0,0.25,0,0)"/>
<path style="fill:none;stroke-width:1.021;stroke-linecap:butt;stroke-linejoin:miter;stroke:rgb(61.568627%,83.137255%,87.843137%);stroke-opacity:1;stroke-miterlimit:10;" d="M 52.40625 57.953125 L 4.5625 40.265625 " transform="matrix(0.25,0,0,0.25,0,0)"/>
<path style="fill:none;stroke-width:1.021;stroke-linecap:butt;stroke-linejoin:miter;stroke:rgb(61.568627%,83.137255%,87.843137%);stroke-opacity:1;stroke-miterlimit:10;" d="M 29.546875 32.703125 L 28.375 66.734375 " transform="matrix(0.25,0,0,0.25,0,0)"/>
<path style="fill:none;stroke-width:1.021;stroke-linecap:butt;stroke-linejoin:miter;stroke:rgb(61.568627%,83.137255%,87.843137%);stroke-opacity:1;stroke-miterlimit:10;" d="M 16.9375 27.390625 L 15.875 62.59375 " transform="matrix(0.25,0,0,0.25,0,0)"/>
<path style="fill:none;stroke-width:1.021;stroke-linecap:butt;stroke-linejoin:miter;stroke:rgb(61.568627%,83.137255%,87.843137%);stroke-opacity:1;stroke-miterlimit:10;" d="M 42.015625 35.953125 L 40.953125 71.390625 " transform="matrix(0.25,0,0,0.25,0,0)"/>
<path style=" stroke:none;fill-rule:nonzero;fill:rgb(74.901961%,53.72549%,1.568627%);fill-opacity:1;" d="M 20.703125 9.691406 L 21.066406 9.066406 C 21.214844 8.816406 21.523438 8.691406 21.800781 8.785156 C 22.308594 8.953125 23.101562 9.390625 23.664062 10.503906 C 24.234375 11.628906 24.148438 12.535156 24.007812 13.046875 C 23.933594 13.320312 23.691406 13.511719 23.414062 13.515625 L 22.902344 13.527344 Z M 20.703125 9.691406 "/>
<path style=" stroke:none;fill-rule:nonzero;fill:rgb(52.941176%,36.470588%,0%);fill-opacity:1;" d="M 22.789062 10.0625 C 22.628906 10.265625 22.808594 11.230469 22.597656 11.464844 C 22.492188 11.578125 22.34375 11.691406 22.203125 11.628906 L 22.773438 13.53125 L 23.417969 13.519531 C 23.699219 13.515625 23.941406 13.324219 24.011719 13.050781 C 24.148438 12.539062 24.238281 11.628906 23.671875 10.507812 C 23.59375 10.363281 23.15625 9.578125 22.789062 10.0625 Z M 22.789062 10.0625 "/>
<path style=" stroke:none;fill-rule:nonzero;fill:rgb(100%,79.215686%,15.686275%);fill-opacity:1;" d="M 22.320312 10.308594 L 17.226562 8.363281 L 11.925781 10.859375 L 13.414062 21.5 L 18.957031 19.128906 L 23.183594 15.6875 Z M 22.320312 10.308594 "/>
<path style=" stroke:none;fill-rule:nonzero;fill:rgb(88.627451%,65.098039%,6.27451%);fill-opacity:1;" d="M 22.320312 10.304688 L 16.988281 12.785156 L 13.460938 21.597656 L 19.007812 19.226562 L 23.234375 15.785156 Z M 22.320312 10.304688 "/>
<path style=" stroke:none;fill-rule:nonzero;fill:rgb(74.901961%,53.72549%,1.568627%);fill-opacity:1;" d="M 16.996094 12.8125 L 11.90625 10.871094 L 7.675781 14.308594 L 8.542969 19.691406 L 13.636719 21.632812 L 17.863281 18.191406 Z M 16.996094 12.8125 "/>
<path style=" stroke:none;fill-rule:nonzero;fill:rgb(52.941176%,36.470588%,0%);fill-opacity:1;" d="M 23.292969 15.78125 L 17.835938 18.199219 L 16.976562 18.910156 C 16.980469 18.875 17.128906 17.191406 15.753906 15.144531 C 14.765625 13.671875 12.53125 12.84375 12.53125 12.84375 L 13.640625 21.671875 L 19.183594 19.300781 Z M 23.292969 15.78125 "/>
<path style=" stroke:none;fill-rule:nonzero;fill:rgb(18.431373%,47.058824%,53.72549%);fill-opacity:1;" d="M 30.566406 26.253906 C 30.566406 26.253906 18.753906 21.824219 18.757812 21.734375 L 19.039062 13.316406 C 19.042969 13.203125 19.15625 13.128906 19.261719 13.171875 L 30.847656 17.449219 C 30.941406 17.484375 31.003906 17.578125 31 17.675781 L 30.71875 26.152344 C 30.714844 26.230469 30.640625 26.28125 30.566406 26.253906 Z M 30.566406 26.253906 "/>
<path style=" stroke:none;fill-rule:nonzero;fill:rgb(21.568627%,27.843137%,30.980392%);fill-opacity:1;" d="M 20.078125 22.390625 L 30.566406 26.253906 C 30.636719 26.28125 30.714844 26.230469 30.71875 26.152344 L 31 17.488281 L 29.253906 16.878906 Z M 20.078125 22.390625 "/>
<path style="fill:none;stroke-width:2.042;stroke-linecap:butt;stroke-linejoin:miter;stroke:rgb(61.568627%,83.137255%,87.843137%);stroke-opacity:1;stroke-miterlimit:10;" d="M 122.265625 105.015625 L 75.578125 87.765625 C 75.234375 87.625 75.015625 87.296875 75.03125 86.9375 L 76.15625 53.265625 C 76.171875 52.8125 76.625 52.515625 77.046875 52.6875 L 123.390625 69.796875 C 123.765625 69.9375 124.015625 70.3125 124 70.703125 L 122.875 104.609375 C 122.859375 104.921875 122.5625 105.125 122.265625 105.015625 Z M 122.265625 105.015625 " transform="matrix(0.25,0,0,0.25,0,0)"/>
<path style="fill:none;stroke-width:1.021;stroke-linecap:butt;stroke-linejoin:miter;stroke:rgb(61.568627%,83.137255%,87.843137%);stroke-opacity:1;stroke-miterlimit:10;" d="M 123.4375 87.625 L 75.59375 69.953125 " transform="matrix(0.25,0,0,0.25,0,0)"/>
<path style="fill:none;stroke-width:1.021;stroke-linecap:butt;stroke-linejoin:miter;stroke:rgb(61.568627%,83.137255%,87.843137%);stroke-opacity:1;stroke-miterlimit:10;" d="M 100.5625 62.390625 L 99.40625 96.40625 " transform="matrix(0.25,0,0,0.25,0,0)"/>
<path style="fill:none;stroke-width:1.021;stroke-linecap:butt;stroke-linejoin:miter;stroke:rgb(61.568627%,83.137255%,87.843137%);stroke-opacity:1;stroke-miterlimit:10;" d="M 87.96875 57.0625 L 86.90625 92.265625 " transform="matrix(0.25,0,0,0.25,0,0)"/>
<path style="fill:none;stroke-width:1.021;stroke-linecap:butt;stroke-linejoin:miter;stroke:rgb(61.568627%,83.137255%,87.843137%);stroke-opacity:1;stroke-miterlimit:10;" d="M 113.046875 65.625 L 111.984375 101.0625 " transform="matrix(0.25,0,0,0.25,0,0)"/>
<path style=" stroke:none;fill-rule:nonzero;fill:rgb(88.627451%,65.098039%,6.27451%);fill-opacity:1;" d="M 18.757812 9.867188 C 18.757812 9.476562 18.089844 9.15625 17.265625 9.15625 C 16.445312 9.15625 15.777344 9.472656 15.777344 9.867188 L 15.777344 10.425781 C 15.777344 10.816406 16.445312 11.136719 17.265625 11.136719 C 18.089844 11.136719 18.757812 10.820312 18.757812 10.425781 Z M 18.757812 9.867188 "/>
<path style=" stroke:none;fill-rule:nonzero;fill:rgb(88.627451%,65.098039%,6.27451%);fill-opacity:1;" d="M 18.757812 9.867188 C 18.757812 9.472656 18.089844 9.15625 17.265625 9.15625 C 16.445312 9.15625 15.777344 9.472656 15.777344 9.867188 C 15.777344 10.261719 16.445312 10.578125 17.265625 10.578125 C 18.089844 10.578125 18.757812 10.261719 18.757812 9.867188 Z M 18.757812 9.867188 "/>
<path style=" stroke:none;fill-rule:nonzero;fill:rgb(100%,79.215686%,15.686275%);fill-opacity:1;" d="M 18.519531 9.816406 C 18.519531 9.515625 17.960938 9.265625 17.265625 9.265625 C 16.574219 9.265625 16.015625 9.515625 16.015625 9.816406 C 16.015625 10.121094 16.574219 10.367188 17.265625 10.367188 C 17.960938 10.367188 18.519531 10.121094 18.519531 9.816406 Z M 18.519531 9.816406 "/>
<path style=" stroke:none;fill-rule:nonzero;fill:rgb(88.627451%,65.098039%,6.27451%);fill-opacity:1;" d="M 17.503906 9.824219 C 17.503906 9.824219 17.457031 9.925781 17.269531 9.925781 C 17.082031 9.925781 17.035156 9.824219 17.035156 9.824219 C 17.035156 9.824219 17.101562 7.253906 17.121094 7.085938 C 17.140625 6.921875 17.378906 6.925781 17.386719 7.085938 C 17.390625 7.25 17.503906 9.824219 17.503906 9.824219 Z M 17.503906 9.824219 "/>
<path style=" stroke:none;fill-rule:nonzero;fill:rgb(74.901961%,53.72549%,1.568627%);fill-opacity:1;" d="M 18.757812 9.867188 C 18.757812 9.867188 18.664062 10.273438 17.835938 10.441406 C 17.230469 10.558594 16.796875 10.511719 16.691406 10.828125 C 16.609375 11.070312 17.183594 11.265625 17.996094 11.046875 C 18.730469 10.847656 18.757812 10.484375 18.757812 10.425781 Z M 18.757812 9.867188 "/>
<path style=" stroke:none;fill-rule:nonzero;fill:rgb(61.568627%,83.137255%,87.843137%);fill-opacity:1;" d="M 13.484375 23.109375 L 9.15625 11.621094 C 11.039062 10.914062 14.546875 12.527344 15.738281 15.699219 C 16.933594 18.867188 15.371094 22.398438 13.484375 23.109375 Z M 13.484375 23.109375 "/>
<path style=" stroke:none;fill-rule:nonzero;fill:rgb(18.431373%,47.058824%,53.72549%);fill-opacity:1;" d="M 12.925781 21.621094 L 13.484375 23.109375 C 15.371094 22.398438 16.9375 18.871094 15.738281 15.699219 C 15.640625 15.433594 15.523438 15.175781 15.390625 14.933594 C 15.863281 17.15625 14.988281 19.914062 12.925781 21.621094 Z M 12.925781 21.621094 "/>
<path style=" stroke:none;fill-rule:nonzero;fill:rgb(96.078431%,96.078431%,96.078431%);fill-opacity:1;" d="M 14.40625 16.222656 C 13.257812 13.171875 10.9375 11.222656 9.226562 11.871094 C 7.515625 12.515625 7.058594 15.507812 8.207031 18.558594 C 9.355469 21.609375 11.675781 23.554688 13.386719 22.910156 C 15.101562 22.265625 15.554688 19.269531 14.40625 16.222656 Z M 14.40625 16.222656 "/>
<path style=" stroke:none;fill-rule:nonzero;fill:rgb(74.117647%,74.117647%,74.117647%);fill-opacity:1;" d="M 9.261719 17.015625 C 8.382812 15.375 7.816406 12.917969 8.902344 12.003906 C 10.050781 11.039062 11.671875 12.171875 12.488281 12.894531 C 12.941406 13.296875 13.175781 13.609375 13.414062 13.925781 C 14.753906 15.753906 15.90625 19.34375 14.359375 20.65625 C 13.28125 21.570312 10.574219 19.46875 9.261719 17.015625 Z M 9.261719 17.015625 "/>
<path style=" stroke:none;fill-rule:nonzero;fill:rgb(38.823529%,57.254902%,64.705882%);fill-opacity:1;" d="M 8.378906 18.472656 C 7.300781 15.613281 7.738281 12.691406 9.332031 12.089844 C 10.925781 11.488281 13.183594 13.398438 14.261719 16.257812 C 15.335938 19.117188 14.902344 22.039062 13.308594 22.640625 C 11.710938 23.238281 9.457031 21.332031 8.378906 18.472656 M 8.046875 18.601562 C 9.238281 21.773438 11.738281 23.765625 13.621094 23.054688 C 15.507812 22.34375 16.066406 19.199219 14.871094 16.023438 C 13.671875 12.851562 11.175781 10.859375 9.292969 11.570312 C 7.40625 12.28125 6.851562 15.425781 8.046875 18.601562 Z M 8.046875 18.601562 "/>
<path style="fill:none;stroke-width:1.5;stroke-linecap:round;stroke-linejoin:miter;stroke:rgb(38.823529%,57.254902%,64.705882%);stroke-opacity:1;stroke-miterlimit:10;" d="M 26.71875 76.296875 L 52.78125 64.765625 " transform="matrix(0.25,0,0,0.25,0,0)"/>
<path style="fill:none;stroke-width:1.5;stroke-linecap:round;stroke-linejoin:miter;stroke:rgb(38.823529%,57.254902%,64.705882%);stroke-opacity:1;stroke-miterlimit:10;" d="M 26.71875 76.296875 L 41.90625 59.296875 " transform="matrix(0.25,0,0,0.25,0,0)"/>
<path style="fill:none;stroke-width:1.5;stroke-linecap:round;stroke-linejoin:miter;stroke:rgb(38.823529%,57.254902%,64.705882%);stroke-opacity:1;stroke-miterlimit:10;" d="M 26.71875 76.296875 L 49.96875 79.84375 " transform="matrix(0.25,0,0,0.25,0,0)"/>
<path style=" stroke:none;fill-rule:nonzero;fill:rgb(38.823529%,57.254902%,64.705882%);fill-opacity:1;" d="M 7.101562 18.621094 L 7.296875 19.140625 C 7.316406 19.195312 7.316406 19.253906 7.292969 19.304688 C 7.269531 19.359375 7.226562 19.398438 7.171875 19.417969 L 6.140625 19.808594 C 6.085938 19.828125 6.027344 19.824219 5.976562 19.800781 C 5.925781 19.777344 5.882812 19.734375 5.863281 19.683594 L 5.667969 19.164062 C 5.648438 19.109375 5.648438 19.050781 5.671875 19 C 5.695312 18.949219 5.738281 18.90625 5.792969 18.886719 L 6.824219 18.5 C 6.878906 18.480469 6.9375 18.480469 6.988281 18.503906 C 7.039062 18.527344 7.078125 18.570312 7.101562 18.621094 Z M 7.101562 18.621094 "/>
</g>
</svg>
